<svg xmlns="http://www.w3.org/2000/svg" xmlns:xlink="http://www.w3.org/1999/xlink" viewBox="0 0 549.05 418.38"><defs><style>.cls-1{fill:#f1f1f1;}.cls-2{fill:#c3c3c3;}.cls-3{fill:#aa008a;}.cls-4{fill:#ffe63f;}.cls-5{fill:#00c9a4;}.cls-6{fill:#15ffe1;}.cls-7{fill:#004c55;}.cls-8{fill:#15ff85;}.cls-9{fill:#00d9e9;}.cls-10{fill:url(#linear-gradient);}.cls-11{fill:url(#linear-gradient-2);}.cls-12{fill:url(#linear-gradient-3);}.cls-13{fill:#772ce8;}.cls-14{fill:#770cd7;}.cls-15{fill:url(#linear-gradient-4);}.cls-16{fill:url(#linear-gradient-5);}.cls-17{fill:url(#linear-gradient-6);}.cls-18{fill:url(#linear-gradient-7);}.cls-19{fill:#efefef;stroke:#a7a9ac;}.cls-19,.cls-20,.cls-21,.cls-22,.cls-23,.cls-26,.cls-27{stroke-miterlimit:10;}.cls-20{fill:#000345;}.cls-20,.cls-22{stroke:#231f20;}.cls-21{fill:#c1c1c1;stroke:#bcbec0;}.cls-22,.cls-27,.cls-29{fill:#fff;}.cls-23{fill:#ffa15c;stroke:#ff8c5c;}.cls-24{fill:#8b002b;}.cls-25{fill:#ef9050;}.cls-26{fill:#f9f9f9;}.cls-26,.cls-27{stroke:#f8f8f8;}.cls-28{fill:#08004f;}.cls-30{fill:url(#linear-gradient-8);}.cls-31{fill:url(#linear-gradient-9);}.cls-32{fill:url(#linear-gradient-10);}.cls-33{fill:url(#linear-gradient-11);}</style><linearGradient id="linear-gradient" x1="350.5" y1="265.87" x2="374.87" y2="265.87" gradientUnits="userSpaceOnUse"><stop offset="0" stop-color="#ffd17f"/><stop offset="1" stop-color="#fbb040"/></linearGradient><linearGradient id="linear-gradient-2" x1="426.81" y1="366.57" x2="470.2" y2="366.57" gradientUnits="userSpaceOnUse"><stop offset="0" stop-color="#fec86f"/><stop offset="1" stop-color="#fcb74e"/></linearGradient><linearGradient id="linear-gradient-3" x1="285.33" y1="365.23" x2="542.39" y2="365.23" gradientUnits="userSpaceOnUse"><stop offset="0" stop-color="#01002a"/><stop offset="1" stop-color="#231f20"/></linearGradient><linearGradient id="linear-gradient-4" x1="371.3" y1="302.1" x2="498.82" y2="302.1" xlink:href="#linear-gradient-2"/><linearGradient id="linear-gradient-5" x1="317.53" y1="412.82" x2="362.33" y2="412.82" xlink:href="#linear-gradient-2"/><linearGradient id="linear-gradient-6" x1="398.57" y1="161.42" x2="450.02" y2="161.42" xlink:href="#linear-gradient"/><linearGradient id="linear-gradient-7" x1="393.96" y1="137.95" x2="454.44" y2="137.95" gradientUnits="userSpaceOnUse"><stop offset="0" stop-color="#940800"/><stop offset="1"/></linearGradient><linearGradient id="linear-gradient-8" x1="312.82" y1="413.74" x2="350.34" y2="413.74" gradientUnits="userSpaceOnUse"><stop offset="0" stop-color="#00172e"/><stop offset="1" stop-color="#231f20"/></linearGradient><linearGradient id="linear-gradient-9" x1="317.58" y1="263.87" x2="343.85" y2="263.87" xlink:href="#linear-gradient-8"/><linearGradient id="linear-gradient-10" x1="338.95" y1="414.47" x2="341.12" y2="414.47" gradientUnits="userSpaceOnUse"><stop offset="0" stop-color="#fff"/><stop offset="0.03" stop-color="#fff2c7"/><stop offset="0.07" stop-color="#fee796"/><stop offset="0.1" stop-color="#fedd6b"/><stop offset="0.14" stop-color="#fed549"/><stop offset="0.17" stop-color="#fdcf2e"/><stop offset="0.21" stop-color="#fdca1b"/><stop offset="0.24" stop-color="#fdc810"/><stop offset="0.28" stop-color="#fdc70c"/><stop offset="0.67" stop-color="#f3903f"/><stop offset="0.89" stop-color="#ed683c"/><stop offset="1" stop-color="#e93e3a"/></linearGradient><linearGradient id="linear-gradient-11" x1="335.95" y1="417.75" x2="338.12" y2="417.75" xlink:href="#linear-gradient-10"/></defs><title>illustration</title><g id="Layer_3" data-name="Layer 3"><path class="cls-1" d="M124.81,368c7-81.09,135-149.93,168.32-158C355.24,194.87,453.7,116.59,508,108.07c133.81-21,144,95.5,155.79,137,9,31.56,28.1,153-35,208.26-36.93,32.35-144,43.13-206.07,27.11-49.63-12.82-157.93,51.67-223.49,42.63C150.49,516.35,122.24,397.77,124.81,368Z" transform="translate(-124.64 -105.56)"/><rect class="cls-2" x="207" y="154.81" width="35.21" height="57.59" rx="10" transform="translate(283.56 -146.56) rotate(90)"/><rect class="cls-3" x="80.31" y="64.21" width="10.8" height="24.79"/><rect class="cls-3" x="94.56" y="77.5" width="10.8" height="11.7"/><rect class="cls-3" x="109.11" y="71.2" width="10.8" height="18"/><path class="cls-4" d="M203.29,279.5H238.2V243.15c-2.69-3-14.14-11.39-14.14-11.39s-10.16-.36-20.77.05Z" transform="translate(-124.64 -105.56)"/><path class="cls-2" d="M196.76,287.5h34.91V251.15c-2.69-3-14.14-11.39-14.14-11.39s-10.16-.36-20.77.05Z" transform="translate(-124.64 -105.56)"/><rect class="cls-3" x="80.31" y="64.21" width="10.8" height="24.79"/><polygon class="cls-1" points="92.89 134.2 92.89 146.19 107.03 145.59 92.89 134.2"/><polygon class="cls-5" points="98.96 126.05 98.96 138.04 113.1 137.44 98.96 126.05"/><rect class="cls-2" x="284.38" y="115.84" width="31.67" height="48" transform="translate(315.41 -265.94) rotate(90)"/><polygon class="cls-6" points="167.91 32.11 172.06 28.21 182.35 37.17 203.71 19.97 207.91 24.86 181.76 43.97 167.91 32.11"/><rect class="cls-7" x="154.63" y="21.61" width="28.8" height="2.77"/><path class="cls-8" d="M492.73,117c6.58-7.13,39.09-5.68,43.56-1.57s5.43,18.21-1.5,26.19c-.73.84-23.34,0-23.34,0L492.73,152S486.16,124.07,492.73,117Z" transform="translate(-124.64 -105.56)"/><rect class="cls-9" x="406.86" y="6.39" width="13.78" height="13.78" rx="6.89"/></g><g id="DRAW"><path class="cls-10" d="M354.62,251.1c-1.85-1.39-4.12,15.9-4.12,15.9l3,12.25,10.63.19,10.74,1.28-1.16-9.16.89-10.34S356.47,252.5,354.62,251.1Z" transform="translate(-124.64 -105.56)"/><path class="cls-11" d="M428.18,357l12.38-2.33s8.39,4.37,15,7.78S473,374,469.52,374.52s-23.86,4-23.86,4l-4.24-4.86a50.46,50.46,0,0,1-8.92,3.11C429.13,377.57,424.46,365.7,428.18,357Z" transform="translate(-124.64 -105.56)"/><path class="cls-12" d="M472.77,318.08s70.89,28.79,69.6,47.65-45,33-45,33-87.42,21-135,16.29c0,0-3.32-25.93,0-23.58s107.7-21.87,108.43-18.85c.63,2.55-61.06-22.46-55.18-30.14l-9.27,5.93-47.4,6s65.66-1.65,67.71,0,4.93,23.21,6.64,23.75S323.8,406.87,291.66,391s68.57-76.27,68.57-76.27" transform="translate(-124.64 -105.56)"/><path class="cls-13" d="M352.5,251.25s12.87-45.38,22.73-49.66,24.84-13.93,52.29-13.29c33.22.77,41.51,8.09,46.73,10.45,17.27,7.82,26,60.9,26,60.9l-26.66,8.85L472.33,242s4.72,71.16.44,76.08-82.61,5.64-90.25,1.79S380.89,249,382.28,243s-7.76,27.18-6.53,22.87S352.5,251.25,352.5,251.25Z" transform="translate(-124.64 -105.56)"/><path class="cls-14" d="M466.75,240.5l6.8,28s3.25,45.33-.78,49.58-10.34-4.17-4.68,1.63S466.75,240.5,466.75,240.5Z" transform="translate(-124.64 -105.56)"/><path class="cls-2" d="M388.73,363.55l11.52-8.16s28.81-20.75,25.1-21.13l-37-3.89Z" transform="translate(-124.64 -105.56)"/><g id="Layer_5" data-name="Layer 5"><polyline points="264.26 243.37 274.52 235.44 264.35 235.44 264.26 243.37"/></g><path class="cls-15" d="M477.73,278.94S443.5,302.4,427,308.15,403.66,314,403.66,314l-12,3.11s-16.71,9.43-19.71,15.43,5.57,2.14,5.57,2.14,12.43-10.71,16.28-12-19.28,15.43-19.28,15.43-.23,4.18,5.09,2.45c5.73-1.87,8.19-5,16.34-12.3s-11.84,13.3-11.84,13.3-1.36,2.87,2.5,2.87,15.65-15.15,15.65-15.15L393.85,342s.85,5.57,5.59,1.51c6-5.12,7.64-10.47,7.64-10.47A32.56,32.56,0,0,0,419,330.47c5.79-2.57,6.25-6.5,6.25-6.5s63.1-17,72.1-29.87a97.94,97.94,0,0,0,1.5-15.1c0-7-1.36-19.76-1.36-19.76l-22.56,7.48S476.54,276.85,477.73,278.94Z" transform="translate(-124.64 -105.56)"/><path class="cls-2" d="M273.38,268.5s73.88,9.12,113.66,13.86c0,0,2.72.78,2.63,4.72s-.94,76.47-.94,76.47l-119-21.35c0-23.36-1.1-48-1.1-71.39C268.67,268.45,273.38,268.5,273.38,268.5Z" transform="translate(-124.64 -105.56)"/><g id="Layer_6" data-name="Layer 6"><path d="M446.09,160.66a29.62,29.62,0,0,0-1.15,5.3c0,1.5-4,2.32-4,2.32l1-3.24,4.19-4.38" transform="translate(-124.64 -105.56)"/></g><path class="cls-16" d="M361.91,411s-6-.14-12.39,0c0,0-11.64,9.77-19.35,17.48s-12.64,1.16-12.64,1.16l19.13-34.45,25.67-1.84Z" transform="translate(-124.64 -105.56)"/><path class="cls-17" d="M400.16,144.92s3.17,25.93,5.31,29.05c3.18,4.63,13.21,8.87,16.4,8.87s12.88-3.47,17.67-10.13L441.9,165s12.08-11.23,6.77-13-3.67,3-3.67,3l-1.84-11.86-.8-3.18-43.79,1.16Z" transform="translate(-124.64 -105.56)"/><path class="cls-18" d="M402.45,116.91c-7.38,3.25-8.45,11-8.49,15,0,1.35,1.51,2.67,1.46,5.36,0,0-4.24,2.17,1.73,5.49s13.32-1.4,20-2.1c0,0,7.45,3.09,12.13,1.67s1.12-1.75,5.14-1.67,4.92,2.72,4.92,2.72l1.8,8.62c-.3,5.4-.55,6.22.6,7l4.27-7.22,4.13.92h0S457.49,141.74,453,131s-7.34-8.92-10.05-12c-10.23-3.94-19.28,1.42-28.13-.14" transform="translate(-124.64 -105.56)"/><path class="cls-19" d="M157.85,424.24s-17-9.3.34-19.93l58.95-.26s-10.77,15.25.08,19.94Z" transform="translate(-124.64 -105.56)"/><polygon class="cls-20" points="33.55 298.76 38.89 295.88 100.05 295.62 92.5 298.49 33.55 298.76"/><path class="cls-21" d="M218.5,424l46.62-31.12s-9.06-8.52.3-17.14-48.28,28.3-48.28,28.3S205.27,420.78,218.5,424Z" transform="translate(-124.64 -105.56)"/><path class="cls-22" d="M223.69,386" transform="translate(-124.64 -105.56)"/><path class="cls-23" d="M165.81,403s-17-9.29.34-19.92l58.94-.27s-10,16.54.81,21.23Z" transform="translate(-124.64 -105.56)"/><polygon class="cls-24" points="41.75 277.68 93.3 252.21 149.22 253.19 100.69 277.42 41.75 277.68"/><path class="cls-25" d="M227.85,404.24l47.65-28.76c-5.11-4.6-7.37-9.14-2.73-15.67L225.34,383S213.73,400.14,227.85,404.24Z" transform="translate(-124.64 -105.56)"/><path class="cls-26" d="M567.33,410h4.5s25.9,21.86,29.66,21.86,7.84,9,7.84,9l7.62,9.64L556.4,473l-47.57-49.5Z" transform="translate(-124.64 -105.56)"/><path class="cls-27" d="M502.18,419l17.57-3.85S532.26,412.59,543,410l10.79-2.57h9.06s17.29,13.5,17.94,18.65,10.92,7.07,10.92,7.07,10.08,9,17.58,16.71,7.62,9.64,7.62,9.64l-28.41,7.72s-15.43,3.86-18.64,8.36-18.6,3.85-18.6,3.85-24-21.21-27.11-28.28-18.86-19.93-18.86-19.93l-10.65-12.86Z" transform="translate(-124.64 -105.56)"/><path class="cls-22" d="M553.83,462.09a65.74,65.74,0,0,0,27.42-7.72,22.22,22.22,0,0,1,12-1.78" transform="translate(-124.64 -105.56)"/><path class="cls-22" d="M544.83,452.44c7.8,1.39,18.51.72,30.42-6.1,4-2.27,8.93-2.82,12-4.83" transform="translate(-124.64 -105.56)"/><path class="cls-22" d="M540.33,443.87c3.82,1.06,13.5-3,24-1.82,7.51.84,12.48-5.23,15.21-7.82" transform="translate(-124.64 -105.56)"/><path class="cls-28" d="M522.75,425.91l2.46-5.46,24.65-22.8s3.54-2.33,4.83,2.6L529.45,424Z" transform="translate(-124.64 -105.56)"/><path class="cls-29" d="M331.5,314.75c0,3.27-1.71,5.92-5,5.92s-5-2.65-5-5.92,1.75-5.92,5-5.92S331.5,311.48,331.5,314.75Z" transform="translate(-124.64 -105.56)"/><path class="cls-22" d="M590.11,737.86" transform="translate(-124.64 -105.56)"/><path class="cls-22" d="M553.83,457.23a65.74,65.74,0,0,0,27.42-7.72,22.22,22.22,0,0,1,12-1.78" transform="translate(-124.64 -105.56)"/><path class="cls-22" d="M546.33,448.32a65.59,65.59,0,0,0,27.42-7.72,22.31,22.31,0,0,1,12-1.78" transform="translate(-124.64 -105.56)"/><polygon class="cls-14" points="257.63 137.44 259.02 131.44 257.63 162.94 255.55 162.94 257.63 137.44"/></g><g id="Layer_4" data-name="Layer 4"><path class="cls-30" d="M350.34,393.37l-3,19.35-19.12,17.8s-11.18,5.33-14.93,3,18.22-37.87,18.22-37.87l18.87-2.26" transform="translate(-124.64 -105.56)"/><polygon class="cls-31" points="317.58 256.69 319.97 271.04 343.85 267.11 317.58 256.69"/><path class="cls-32" d="M341.11,417.83c.17-8.33-2.16-8.16-2.16-8.16l1.08,9.59Z" transform="translate(-124.64 -105.56)"/><path class="cls-33" d="M338.11,421.83c.17-8.33-2.16-8.16-2.16-8.16" transform="translate(-124.64 -105.56)"/></g></svg>